HIERARCHY
ROOT Hip
{
	OFFSET 0 0 0
	CHANNELS 6 Xposition Yposition Zposition Zrotation Yrotation Xrotation
	JOINT ShoulderCenter
	{
		OFFSET 0 0.4363 0
		CHANNELS 3 Zrotation Yrotation Xrotation
		JOINT Head
		{
			OFFSET 0 0.1849 0
			CHANNELS 3 Zrotation Yrotation Xrotation
			End Site
			{
				OFFSET 0.0 0.0891 0.0
			}
		}
		JOINT ShoulderLeft
		{
			OFFSET -0.14 0 0
			CHANNELS 3 Zrotation Yrotation Xrotation
			JOINT ElbowLeft
			{
				OFFSET -0.25 0 0
				CHANNELS 3 Zrotation Yrotation Xrotation
				JOINT WristLeft
				{
					OFFSET -0.23 0 0
					CHANNELS 3 Zrotation Yrotation Xrotation
					End Site
					{
						OFFSET -0.0832 0.0 0.0
					}
				}
			}
		}
		JOINT ShoulderRight
		{
			OFFSET 0.14 0 0
			CHANNELS 3 Zrotation Yrotation Xrotation
			JOINT ElbowRight
			{
				OFFSET 0.25 0 0
				CHANNELS 3 Zrotation Yrotation Xrotation
				JOINT WristRight
				{
					OFFSET 0.23 0 0
					CHANNELS 3 Zrotation Yrotation Xrotation
					End Site
					{
						OFFSET 0.0832 0.0 0.0
					}
				}
			}
		}
	}
	JOINT HipLeft
	{
		OFFSET -0.0952 0 0
		CHANNELS 3 Zrotation Yrotation Xrotation
		JOINT KneeLeft
		{
			OFFSET 0 -0.3732 0
			CHANNELS 3 Zrotation Yrotation Xrotation
			JOINT AnkleLeft
			{
				OFFSET 0 -0.346 0
				CHANNELS 3 Zrotation Yrotation Xrotation
				End Site
				{
					OFFSET 0.0 0.0 0.0891
				}
			}
		}
	}
	JOINT HipRight
	{
		OFFSET 0.0952 0 0
		CHANNELS 3 Zrotation Yrotation Xrotation
		JOINT KneeRight
		{
			OFFSET 0 -0.3732 0
			CHANNELS 3 Zrotation Yrotation Xrotation
			JOINT AnkleRight
			{
				OFFSET 0 -0.346 0
				CHANNELS 3 Zrotation Yrotation Xrotation
				End Site
				{
					OFFSET 0.0 0.0 0.0891
				}
			}
		}
	}
}
MOTION
Frames: 16
Frame Time: 0.033333
9.32536e-005 -0.000517511 -0.00244502 89.6612 -1.19549 13.2455 48.9535 -57.0431 -40.9237 0 0 0 -21.6888 62.2476 -25.1791 -2.6812e-005 83.149 -3.85847e-005 0 0 0 85.5289 -69.6068 -50.6988 3.14513 7.68207 0.0132833 0 0 0 145.014 0.433624 173.821 -7.40666 1.91867 112.656 0 0 0 -35.5804 26.4321 -18.5332 72.3216 -76.4309 -120.312 0 0 0 
9.69241e-005 -0.000530558 -0.00244825 90.1757 0.415971 13.3216 45.9109 -56.6346 -42.3931 0 0 0 -13.8639 60.4038 -18.9606 7.23377e-006 84.6136 2.5351e-006 0 0 0 97.1947 -73.2167 -61.7007 3.38437 9.25499 0.043762 0 0 0 144.601 -2.26424 172.949 -6.90621 1.9336 110.642 0 0 0 -37.8797 36.9065 -20.4855 122.576 -75.6995 -175.243 0 0 0 
9.72279e-005 -0.000534121 -0.00245026 90.4343 0.406902 13.6306 46.4668 -55.0327 -42.2744 0 0 0 -17.7128 59.2193 -21.6351 6.8716e-006 84.6691 3.70524e-006 0 0 0 109.709 -77.521 -74.676 10.0763 17.4631 0.905141 0 0 0 144.6 -4.649 173.464 -6.85442 2.73305 112.346 0 0 0 -40.8477 46.7125 -22.8491 29.8188 82.8989 85.0012 5.47502e-008 2.10116e-006 -3.31448e-007 
0.000100097 -0.000536942 -0.00245388 90.8008 0.95871 13.6361 47.4828 -54.2089 -43.5393 0 0 0 -21.3966 59.3594 -23.2872 9.10341e-006 83.6259 -2.15666e-006 0 0 0 123.264 -79.8074 121.12 -2.68906e-007 -26.0515 -2.26527e-006 0 0 0 144.418 -4.78335 173.112 -6.86077 2.659 112.041 0 0 0 -46.8705 56.4098 -27.9167 38.682 75.4709 95.0795 0 0 0 
0.000100565 -0.000543451 -0.00246188 90.7363 0.0278938 13.6603 44.2387 -53.2447 -41.713 0 0 0 -15.7808 59.5517 -19.0534 3.1997e-005 84.7679 2.90927e-005 0 0 0 128.995 -80.7578 116.329 -6.19594e-007 -26.5523 -1.64742e-006 0 0 0 144.36 -8.69042 173.725 -6.20073 2.6222 107.37 0 0 0 -49.4844 58.5692 -31.0336 40.6735 74.1743 97.3107 0 0 0 
0.00010174 -0.000545122 -0.00246227 90.4787 -0.266097 13.5642 43.8292 -53.1859 -41.0531 0 0 0 -16.2134 59.8848 -18.9844 7.42573e-006 84.287 4.14398e-006 0 0 0 129.472 -80.9312 115.184 1.26741e-006 -27.2513 -5.46292e-006 0 0 0 144.805 -9.04894 173.888 -6.10988 2.66404 107.175 0 0 0 -34.7109 38.6617 -20.2352 73.9379 -81.7207 -126.905 4.13809e-007 1.07089e-006 7.62365e-007 
0.000106218 -0.000549244 -0.00246227 90.2413 -0.769378 13.5195 42.4708 -52.7556 -40.3981 0 0 0 -15.495 57.597 -17.4192 -4.0678e-005 86.8295 -4.22552e-005 0 0 0 132.183 -81.166 112.568 7.07711e-006 -26.1025 -4.64892e-006 0 0 0 145.249 -9.24016 174.334 -6.0246 2.84583 107.682 0 0 0 -34.2607 37.9102 -20.2546 37.8241 -82.0801 -90.8562 0 0 0 
0.000106218 -0.000549244 -0.00246227 90.0241 -1.67234 13.5241 41.2311 -52.1889 -39.6166 0 0 0 -25.5232 63.126 -22.5726 -1.95897e-005 76.3429 -1.81458e-005 0 0 0 133.01 -81.186 111.471 -6.20737e-006 -25.6631 -2.18451e-006 0 0 0 145.229 -9.76247 174.929 -6.03655 3.02507 107.717 0 0 0 -33.317 33.6089 -19.5868 57.3211 -76.072 -108.202 0 0 0 
0.000106218 -0.000549244 -0.00245944 89.5801 -3.6414 13.0921 38.5806 -51.1774 -36.9992 0 0 0 -13.6345 62.0825 -15.0689 5.95005e-006 80.5658 9.31663e-008 0 0 0 112.194 -77.3399 132.376 1.55611 -14.586 -0.0608387 0 0 0 144.904 -9.91441 175.88 -6.02042 3.04757 107.058 0 0 0 -32.3204 31.3576 -19.2422 50.5205 -73.9616 -100.497 0 0 0 
9.40516e-005 -0.000546892 -0.00245176 87.5825 -5.99623 12.1144 40.8935 -52.4106 -36.1575 1.14839e-006 -1.29904e-006 6.84535e-008 -3.77989 65.2514 -10.1298 -2.00451e-006 76.2003 -1.73715e-006 0 0 0 106.744 -77.5338 137.867 3.93254 -13.324 -0.0545703 0 0 0 -0.164253 -0.883997 -53.0218 -10.7284 -6.24969 -22.7053 0 0 0 -28.0423 18.9897 -16.9342 27.8328 -60.3291 -72.6216 0 0 0 
8.86694e-005 -0.000525957 -0.00244702 84.6903 -5.88118 12.337 53.4963 -59.3427 -36.5897 0 0 0 -22.4096 71.36 -31.8162 -2.42691e-005 78.0244 -2.28926e-005 0 0 0 76.1111 -68.5968 169.501 4.7037 -9.07304 -0.00956809 0 0 0 2.24391 -2.34162 -53.6535 -4.42672 -4.3097 -25.5101 0 0 0 -24.6309 6.78618 -17.1301 15.3181 -45.4696 -55.361 0 0 0 
6.64507e-005 -0.000525957 -0.00244465 84.318 -6.88477 12.145 50.2918 -59.298 -35.033 0 0 0 -12.5292 74.0798 -21.7384 3.29912e-007 76.5934 -8.8378e-006 0 0 0 75.0775 -72.5947 171.318 3.6463 -11.2669 0.0499267 0 0 0 4.35286 -2.48658 -54.1045 -4.48495 -2.61913 -17.2839 0 0 0 -23.2818 -5.40718 -18.131 13.7268 -30.5309 -44.5292 0 0 0 
4.3691e-005 -0.000525957 -0.00244422 83.7515 -6.83515 12.04 52.0189 -60.4083 -35.0259 0 0 0 -33.285 71.3568 -35.369 -2.41546e-005 77.5356 -2.2533e-005 -7.86063e-007 1.9893e-006 -6.50778e-007 69.1357 -75.7977 177.023 2.5499 -14.7355 0.0395955 0 0 0 4.65093 -4.05052 -53.7818 -2.97902 -1.31235 -8.96751 0 0 0 -22.9927 -9.45677 -18.9163 11.9606 -24.6298 -38.0634 1.0138e-007 -6.8038e-007 3.69044e-007 
2.87488e-005 -0.00052737 -0.00244383 83.5193 -6.99694 12.0408 50.8236 -60.3869 -35.7387 0 0 0 -27.967 71.1017 -28.2275 8.24507e-006 79.0211 4.25941e-006 0 0 0 63.5801 -79.7908 -177.035 2.13732 -16.0377 -0.0368396 3.71301e-007 -4.30281e-007 6.00952e-007 4.14122 -5.2885 -53.9367 1.18318 -0.261566 -2.79866 0 0 0 -24.2196 -14.4101 -19.9263 15.2514 -18.7299 -33.1929 2.68773e-007 -6.14068e-007 5.69771e-007 
-1.49797e-005 -0.000527491 -0.00244383 82.4975 -8.16683 11.8909 55.4817 -65.7707 -42.9667 0 0 0 6.7593 79.416 5.69615 -8.66044e-006 81.4272 -8.23257e-006 0 0 0 -24.3626 -79.8984 -92.242 -4.66218e-007 -24.6676 3.77116e-007 -4.66508e-007 5.10598e-007 1.11242e-006 3.9075 -3.34133 -53.8915 -14.1715 2.52639 7.00877 -1.65283e-006 1.07776e-006 -3.2712e-007 -20.5071 -13.89 -20.9018 12.6814 -14.8064 -29.4361 0 0 0 
-3.76954e-005 -0.000533143 -0.00244363 81.3049 -10.1731 11.4982 51.9864 -65.6096 -40.3768 0 0 0 37.3131 77.1632 40.5772 -0.000355123 88.94 -0.000352786 0 0 0 -28.3123 -78.4822 -87.7517 0.911295 -19.15 -0.266217 0 0 0 5.43115 -3.61381 -54.7082 -11.7929 4.23793 13.2095 0 0 0 -17.5446 -14.1073 -22.3752 13.6021 -15.6016 -32.0552 0 0 0 
